<svg id="Lager_1" data-name="Lager 1" xmlns="http://www.w3.org/2000/svg" viewBox="0 0 850 250"><path d="M387.85,108a11.13,11.13,0,0,1-7.35,2.4,12.16,12.16,0,0,1-10-4.91,16.77,16.77,0,0,1-2.72-5.54,24.75,24.75,0,0,1-.94-7,27.59,27.59,0,0,1,.83-6.9,17,17,0,0,1,2.51-5.57,12,12,0,0,1,4.22-3.73,12.53,12.53,0,0,1,6-1.36,10.78,10.78,0,0,1,7.11,2.26,9.9,9.9,0,0,1,3.41,6h10A19.77,19.77,0,0,0,399,77a17.16,17.16,0,0,0-4.14-5.33,19.22,19.22,0,0,0-6.24-3.55,24.37,24.37,0,0,0-8.22-1.29,23.82,23.82,0,0,0-9.92,2,21.71,21.71,0,0,0-7.53,5.5,24.7,24.7,0,0,0-4.77,8.29,30.74,30.74,0,0,0-1.67,10.28,29.11,29.11,0,0,0,1.77,10.34,25,25,0,0,0,4.95,8.15,22.11,22.11,0,0,0,7.59,5.37,26.69,26.69,0,0,0,18.54.48,19.14,19.14,0,0,0,6.23-3.86,17.41,17.41,0,0,0,3.9-5.4,17.59,17.59,0,0,0,1.6-6.38h-9.89A9.43,9.43,0,0,1,387.85,108Z"/><path d="M436,86.37a18.08,18.08,0,0,0-5.89-4,20.36,20.36,0,0,0-15.19,0,17.76,17.76,0,0,0-9.72,10,20.92,20.92,0,0,0,0,14.84,17.81,17.81,0,0,0,9.72,10,20.48,20.48,0,0,0,15.19,0,17.73,17.73,0,0,0,9.72-10,20.92,20.92,0,0,0,0-14.84A18.13,18.13,0,0,0,436,86.37Zm-6.76,21.84a8.65,8.65,0,0,1-13.45,0,14,14,0,0,1-2.33-8.43,14.19,14.19,0,0,1,2.33-8.46,8.6,8.6,0,0,1,13.45,0,14.19,14.19,0,0,1,2.33,8.46A14,14,0,0,1,429.19,108.21Z"/><path d="M471.33,117.34a14.18,14.18,0,0,0,4.91-3.76,17.3,17.3,0,0,0,3.17-6,28,28,0,0,0,0-15.5,17.18,17.18,0,0,0-3.13-6,14.72,14.72,0,0,0-4.91-3.86A14.43,14.43,0,0,0,465,80.9a11.83,11.83,0,0,0-6.24,1.54,14.64,14.64,0,0,0-4.28,3.9h-.21V81.88h-9.13v47.44h9.48V113.58h.14a11.4,11.4,0,0,0,4,3.69,12.76,12.76,0,0,0,6.27,1.39A14.8,14.8,0,0,0,471.33,117.34Zm-14.74-9.48a12.71,12.71,0,0,1-2.19-7.8,21.63,21.63,0,0,1,.45-4.49,10.59,10.59,0,0,1,1.46-3.66,7.81,7.81,0,0,1,2.58-2.44,7.52,7.52,0,0,1,3.8-.9q4.38,0,6.3,3.2a16,16,0,0,1,1.92,8.29q0,5.09-2.13,7.91a6.8,6.8,0,0,1-5.74,2.82A7.54,7.54,0,0,1,456.59,107.86Z"/><path d="M500.3,123.57a36.65,36.65,0,0,0,2.12-5l12.47-36.64h-9.54l-5,16.09c-.28.84-.54,1.71-.8,2.61s-.47,1.76-.66,2.55-.44,1.76-.63,2.64h-.14c-.28-.88-.53-1.76-.76-2.64s-.48-1.64-.73-2.55-.53-1.77-.81-2.61l-5.29-16.09h-10l9.61,25.43c.51,1.34.94,2.52,1.29,3.52s.63,1.87.84,2.61a16.79,16.79,0,0,1,.45,2,10.46,10.46,0,0,1,.14,1.57,5,5,0,0,1-1.22,3.55c-.81.89-2.17,1.33-4.08,1.33h-3.34v7.45h5.57a16.5,16.5,0,0,0,4.64-.56,8.41,8.41,0,0,0,3.34-1.84A12,12,0,0,0,500.3,123.57Z"/><path d="M531.66,83a13.72,13.72,0,0,0-3.62,4.6h-.21V81.88H518.7v35.74h9.48V100.2q0-5.64,3-8.15a9.89,9.89,0,0,1,7.67-2h.21V81.74a6.75,6.75,0,0,0-2.23-.28A8.32,8.32,0,0,0,531.66,83Z"/><rect x="543.76" y="67.81" width="9.47" height="8.5"/><rect x="543.76" y="81.88" width="9.47" height="35.74"/><path d="M582.73,85.64h-.14a11,11,0,0,0-4.07-3.48,12.67,12.67,0,0,0-5.82-1.26,15.56,15.56,0,0,0-6.23,1.22,13.88,13.88,0,0,0-4.88,3.52,16.51,16.51,0,0,0-3.21,5.54,21.59,21.59,0,0,0-1.15,7.21,18.25,18.25,0,0,0,1.36,7.21,16.85,16.85,0,0,0,3.56,5.36,15,15,0,0,0,5,3.35,15.4,15.4,0,0,0,5.82,1.15,11.53,11.53,0,0,0,5.57-1.19,13.71,13.71,0,0,0,3.76-3h.21v3.9q0,7.45-7.94,7.45a8.68,8.68,0,0,1-5-1.15,5.53,5.53,0,0,1-2.19-2.82H558a11.61,11.61,0,0,0,5,8.19q4.29,3,11.67,3a26.08,26.08,0,0,0,7.32-1,13.57,13.57,0,0,0,5.57-3.06,12.29,12.29,0,0,0,3.13-4.46,16.38,16.38,0,0,0,1.12-6.41v-33h-9.13Zm-.21,16.3A9,9,0,0,1,581,105a7.13,7.13,0,0,1-2.62,2.09,8.81,8.81,0,0,1-3.83.76,7.41,7.41,0,0,1-5.88-2.5c-1.47-1.68-2.2-4-2.2-7.11a10.72,10.72,0,0,1,2.2-7.14,7.21,7.21,0,0,1,5.81-2.61,8.64,8.64,0,0,1,3.76.76,7.51,7.51,0,0,1,2.65,2.09,9.16,9.16,0,0,1,1.57,3.1,13.13,13.13,0,0,1,.52,3.73A13.68,13.68,0,0,1,582.52,101.94Z"/><path d="M625.58,84.7a11.57,11.57,0,0,0-3.87-2.79,12.31,12.31,0,0,0-5.05-1,11.82,11.82,0,0,0-6.06,1.4,13.8,13.8,0,0,0-4.32,4.25h-.21V67.81H596.6v49.81h9.47V97.34a8.51,8.51,0,0,1,2.06-6,6.71,6.71,0,0,1,5.19-2.27,5.79,5.79,0,0,1,4.59,1.82,6.85,6.85,0,0,1,1.61,4.73v22H629V94.28a15.44,15.44,0,0,0-.9-5.37A13,13,0,0,0,625.58,84.7Z"/><path d="M651.24,110.65h-1.81a4,4,0,0,1-2.58-.77,3.35,3.35,0,0,1-1-2.78V88.15H652V81.88h-6.13V70.73h-9.27V81.88h-5v6.27h5v21a9,9,0,0,0,.87,4.18,7.36,7.36,0,0,0,2.26,2.65,8.59,8.59,0,0,0,3.11,1.35,15.31,15.31,0,0,0,3.44.39h2.51c.74,0,1.37,0,1.88-.07s1.07,0,1.54-.07v-7A6.46,6.46,0,0,1,651.24,110.65Z"/><path d="M387.85,171a11.08,11.08,0,0,1-7.35,2.41,12.16,12.16,0,0,1-10-4.91,17,17,0,0,1-2.72-5.54,24.82,24.82,0,0,1-.94-7,27.64,27.64,0,0,1,.83-6.9,17.22,17.22,0,0,1,2.51-5.57,12.1,12.1,0,0,1,4.22-3.73,12.65,12.65,0,0,1,6-1.35,10.73,10.73,0,0,1,7.11,2.26,9.9,9.9,0,0,1,3.41,6h10a19.7,19.7,0,0,0-2-6.62,17,17,0,0,0-4.14-5.33,19.24,19.24,0,0,0-6.24-3.56,24.63,24.63,0,0,0-8.22-1.28,24,24,0,0,0-9.92,2,21.84,21.84,0,0,0-7.53,5.5,24.65,24.65,0,0,0-4.77,8.3A30.68,30.68,0,0,0,356.54,156a29.21,29.21,0,0,0,1.77,10.35,25.12,25.12,0,0,0,4.95,8.15,22,22,0,0,0,7.59,5.36,24,24,0,0,0,9.65,1.92,24.54,24.54,0,0,0,8.89-1.43,19,19,0,0,0,6.23-3.87,17.29,17.29,0,0,0,3.9-5.4,17.54,17.54,0,0,0,1.6-6.37h-9.89A9.41,9.41,0,0,1,387.85,171Z"/><path d="M436,149.44a18.1,18.1,0,0,0-5.89-4,20.48,20.48,0,0,0-15.19,0,17.81,17.81,0,0,0-9.72,10,20.92,20.92,0,0,0,0,14.84,17.81,17.81,0,0,0,9.72,10,20.48,20.48,0,0,0,15.19,0,17.73,17.73,0,0,0,9.72-10,20.92,20.92,0,0,0,0-14.84A18,18,0,0,0,436,149.44Zm-6.76,21.84a8.67,8.67,0,0,1-13.45,0,14,14,0,0,1-2.33-8.43,14.2,14.2,0,0,1,2.33-8.47,8.6,8.6,0,0,1,13.45,0,14.2,14.2,0,0,1,2.33,8.47A14,14,0,0,1,429.19,171.28Z"/><rect x="445.13" y="144.94" width="9.47" height="35.74"/><rect x="445.13" y="130.87" width="9.47" height="8.5"/><path d="M488.32,147.77a11.17,11.17,0,0,0-3.86-2.79,13.63,13.63,0,0,0-11.29.45,12.61,12.61,0,0,0-4.35,4.39h-.21v-4.88h-9.27v35.74h9.48V160.41a8.53,8.53,0,0,1,2.05-6,6.74,6.74,0,0,1,5.19-2.26,5.81,5.81,0,0,1,4.6,1.81,6.89,6.89,0,0,1,1.6,4.74v21.94h9.48V157.34a15.15,15.15,0,0,0-.91-5.36A12.84,12.84,0,0,0,488.32,147.77Z"/><path d="M522.7,161.91a14,14,0,0,0-4.08-1.85c-1.51-.42-3-.79-4.49-1.11-1.26-.28-2.48-.51-3.66-.7a19.19,19.19,0,0,1-3.14-.73,7,7,0,0,1-2.19-1.12,2.2,2.2,0,0,1-.84-1.84,3.25,3.25,0,0,1,1.68-3,8.48,8.48,0,0,1,4.45-1,8.62,8.62,0,0,1,4.81,1.15,5.3,5.3,0,0,1,2.09,4.07h8.57a12.42,12.42,0,0,0-4.39-8.64q-3.82-3.19-10.94-3.2a22.17,22.17,0,0,0-5.71.7,13.86,13.86,0,0,0-4.63,2.12,10.05,10.05,0,0,0-3.1,3.55,10.66,10.66,0,0,0-1.12,5,9.57,9.57,0,0,0,1.08,4.81,9.06,9.06,0,0,0,2.86,3.07,13.9,13.9,0,0,0,4,1.81c1.51.42,3.08.79,4.7,1.11,1.21.24,2.38.46,3.52.66a17,17,0,0,1,3,.81,6.08,6.08,0,0,1,2.09,1.25,2.67,2.67,0,0,1,.8,2,3.44,3.44,0,0,1-1.71,3,8.87,8.87,0,0,1-4.84,1.11,9.17,9.17,0,0,1-5.26-1.39,6.31,6.31,0,0,1-2.54-4.53H495a12.43,12.43,0,0,0,4.67,9.16q4.25,3.45,12.05,3.45a21.85,21.85,0,0,0,6.09-.8,14.91,14.91,0,0,0,4.74-2.27,10.11,10.11,0,0,0,4.22-8.43,10.44,10.44,0,0,0-1.12-5.12A9.28,9.28,0,0,0,522.7,161.91Z"/><path d="M224.42,51.72,240.69,68a45.06,45.06,0,1,1,0,63.73L224.42,148a68.06,68.06,0,1,0,0-96.25Z"/><path d="M205.21,182a45.06,45.06,0,1,1,63.73-63.73L285.2,102a68.06,68.06,0,1,0,0,96.25L268.94,182A45.12,45.12,0,0,1,205.21,182Z"/></svg>