<svg id="Lager_1" data-name="Lager 1" xmlns="http://www.w3.org/2000/svg" viewBox="0 0 850 250"><defs><style>.cls-1{fill:#fff;}</style></defs><path class="cls-1" d="M425.27,107.36a11.14,11.14,0,0,1-7.35,2.41,12.39,12.39,0,0,1-5.68-1.29,12.54,12.54,0,0,1-4.32-3.63,16.8,16.8,0,0,1-2.71-5.53,24.87,24.87,0,0,1-.94-7,27.64,27.64,0,0,1,.83-6.9,17.22,17.22,0,0,1,2.51-5.57,12.1,12.1,0,0,1,4.22-3.73,12.65,12.65,0,0,1,6-1.36A10.73,10.73,0,0,1,425,77a9.9,9.9,0,0,1,3.41,6h10a19.75,19.75,0,0,0-1.95-6.62,17.12,17.12,0,0,0-4.14-5.32,19.24,19.24,0,0,0-6.24-3.56,24.37,24.37,0,0,0-8.22-1.29,24.06,24.06,0,0,0-9.93,2,21.8,21.8,0,0,0-7.52,5.5A24.7,24.7,0,0,0,395.63,82,30.74,30.74,0,0,0,394,92.28a29.11,29.11,0,0,0,1.77,10.34,25.06,25.06,0,0,0,4.95,8.16,22.09,22.09,0,0,0,7.59,5.36,24,24,0,0,0,9.65,1.92,24.45,24.45,0,0,0,8.88-1.43,18.94,18.94,0,0,0,6.24-3.87,17.41,17.41,0,0,0,3.9-5.4,17.75,17.75,0,0,0,1.6-6.37h-9.89A9.41,9.41,0,0,1,425.27,107.36Z"/><path class="cls-1" d="M473.37,85.77a18,18,0,0,0-5.89-4,20.48,20.48,0,0,0-15.19,0,17.73,17.73,0,0,0-9.72,10,20.92,20.92,0,0,0,0,14.84,17.67,17.67,0,0,0,9.72,10,20.36,20.36,0,0,0,15.19,0,17.67,17.67,0,0,0,9.72-10,20.92,20.92,0,0,0,0-14.84A18,18,0,0,0,473.37,85.77Zm-6.76,21.84a8.67,8.67,0,0,1-13.45,0,14,14,0,0,1-2.33-8.43,14.2,14.2,0,0,1,2.33-8.47,8.6,8.6,0,0,1,13.45,0,14.2,14.2,0,0,1,2.33,8.47A14,14,0,0,1,466.61,107.61Z"/><path class="cls-1" d="M508.75,116.73a14.06,14.06,0,0,0,4.91-3.76,17.21,17.21,0,0,0,3.17-6,28,28,0,0,0,0-15.5,17.13,17.13,0,0,0-3.13-6,14.75,14.75,0,0,0-4.91-3.87,14.46,14.46,0,0,0-6.41-1.39,11.9,11.9,0,0,0-6.24,1.53,14.52,14.52,0,0,0-4.28,3.9h-.21V81.27h-9.13v47.45H492V113h.13a11.52,11.52,0,0,0,4,3.69,12.75,12.75,0,0,0,6.27,1.4A14.81,14.81,0,0,0,508.75,116.73ZM494,107.26a12.72,12.72,0,0,1-2.19-7.81,21.7,21.7,0,0,1,.45-4.49,10.76,10.76,0,0,1,1.46-3.66,7.68,7.68,0,0,1,2.58-2.43,7.42,7.42,0,0,1,3.8-.91q4.38,0,6.3,3.2a16,16,0,0,1,1.92,8.29c0,3.4-.71,6-2.13,7.91a6.81,6.81,0,0,1-5.75,2.82A7.54,7.54,0,0,1,494,107.26Z"/><path class="cls-1" d="M537.72,123a37.19,37.19,0,0,0,2.12-5l12.47-36.65h-9.54l-5,16.1c-.28.83-.54,1.7-.8,2.61s-.48,1.75-.66,2.54-.44,1.77-.63,2.65h-.14c-.28-.88-.53-1.77-.76-2.65s-.48-1.64-.73-2.54-.53-1.78-.81-2.61l-5.29-16.1H518l9.61,25.43c.51,1.35.94,2.52,1.29,3.52s.63,1.87.84,2.61.35,1.41.45,2a10.34,10.34,0,0,1,.14,1.56,5.08,5.08,0,0,1-1.22,3.56q-1.22,1.32-4.08,1.32h-3.34v7.46h5.57a16.88,16.88,0,0,0,4.64-.56,8.43,8.43,0,0,0,3.34-1.85A11.93,11.93,0,0,0,537.72,123Z"/><path class="cls-1" d="M569.08,82.39A13.45,13.45,0,0,0,565.46,87h-.21V81.27h-9.13V117h9.48V99.59c0-3.76,1-6.47,3-8.15a9.89,9.89,0,0,1,7.67-2h.21V81.13a7.08,7.08,0,0,0-2.23-.28A8.33,8.33,0,0,0,569.08,82.39Z"/><rect class="cls-1" x="581.18" y="67.2" width="9.47" height="8.5"/><rect class="cls-1" x="581.18" y="81.27" width="9.47" height="35.74"/><path class="cls-1" d="M620.15,85H620a11.32,11.32,0,0,0-4.07-3.48,12.67,12.67,0,0,0-5.82-1.25,15.47,15.47,0,0,0-6.24,1.22A13.78,13.78,0,0,0,599,85a16.61,16.61,0,0,0-3.21,5.54,21.64,21.64,0,0,0-1.15,7.21A18.21,18.21,0,0,0,596,105a16.9,16.9,0,0,0,3.56,5.37,15,15,0,0,0,5,3.34,15.21,15.21,0,0,0,5.82,1.15,11.53,11.53,0,0,0,5.57-1.18,13.9,13.9,0,0,0,3.76-3h.21v3.9q0,7.46-7.94,7.46a8.76,8.76,0,0,1-5-1.15,5.61,5.61,0,0,1-2.19-2.82h-9.41a11.55,11.55,0,0,0,5.05,8.18q4.29,3,11.67,3a26,26,0,0,0,7.31-1,13.51,13.51,0,0,0,5.58-3.07,12.32,12.32,0,0,0,3.13-4.46,16.35,16.35,0,0,0,1.12-6.41v-33h-9.13Zm-.21,16.31a8.91,8.91,0,0,1-1.49,3.06,7.13,7.13,0,0,1-2.62,2.09,8.81,8.81,0,0,1-3.83.77,7.46,7.46,0,0,1-5.89-2.51q-2.19-2.5-2.19-7.11a10.77,10.77,0,0,1,2.19-7.14,7.24,7.24,0,0,1,5.82-2.61,8.64,8.64,0,0,1,3.76.77,7.3,7.3,0,0,1,2.65,2.09,9,9,0,0,1,1.57,3.1,13,13,0,0,1,.52,3.72A13.75,13.75,0,0,1,619.94,101.34Z"/><path class="cls-1" d="M663,84.09a11.41,11.41,0,0,0-3.87-2.78,12.15,12.15,0,0,0-5-1A11.82,11.82,0,0,0,648,81.69a13.91,13.91,0,0,0-4.32,4.25h-.21V67.2H634V117h9.47V96.74a8.49,8.49,0,0,1,2.06-6,6.69,6.69,0,0,1,5.19-2.26,5.8,5.8,0,0,1,4.59,1.81,6.89,6.89,0,0,1,1.61,4.74V117h9.47V93.67a15.34,15.34,0,0,0-.9-5.36A13.07,13.07,0,0,0,663,84.09Z"/><path class="cls-1" d="M688.66,110h-1.81a4.06,4.06,0,0,1-2.58-.76,3.37,3.37,0,0,1-1-2.79V87.54h6.14V81.27h-6.14V70.12H674V81.27h-4.95v6.27H674v21a9,9,0,0,0,.87,4.18,7.18,7.18,0,0,0,2.26,2.65,8.81,8.81,0,0,0,3.1,1.36,16.07,16.07,0,0,0,3.45.38h2.51c.74,0,1.37,0,1.88-.07a14.32,14.32,0,0,0,1.53-.07v-7A6.33,6.33,0,0,1,688.66,110Z"/><path class="cls-1" d="M425.27,170.43a11.13,11.13,0,0,1-7.35,2.4,12.2,12.2,0,0,1-10-4.91,16.85,16.85,0,0,1-2.71-5.54,24.77,24.77,0,0,1-.94-7,27.51,27.51,0,0,1,.83-6.89,17.18,17.18,0,0,1,2.51-5.58,12.07,12.07,0,0,1,4.22-3.72,12.53,12.53,0,0,1,6-1.36,10.73,10.73,0,0,1,7.11,2.26,9.9,9.9,0,0,1,3.41,6h10a19.68,19.68,0,0,0-1.95-6.62,17.16,17.16,0,0,0-4.14-5.33,19.22,19.22,0,0,0-6.24-3.55,24.37,24.37,0,0,0-8.22-1.29,24.05,24.05,0,0,0-9.93,2,21.82,21.82,0,0,0-7.52,5.51,24.6,24.6,0,0,0-4.77,8.29A30.73,30.73,0,0,0,394,155.34a29.13,29.13,0,0,0,1.77,10.35,25,25,0,0,0,4.95,8.15,22.11,22.11,0,0,0,7.59,5.37,24.16,24.16,0,0,0,9.65,1.91,24.45,24.45,0,0,0,8.88-1.43,19.08,19.08,0,0,0,6.24-3.86,17.41,17.41,0,0,0,3.9-5.4,17.8,17.8,0,0,0,1.6-6.38h-9.89A9.43,9.43,0,0,1,425.27,170.43Z"/><path class="cls-1" d="M473.37,148.83a18.26,18.26,0,0,0-5.89-4,20.48,20.48,0,0,0-15.19,0,17.73,17.73,0,0,0-9.72,10,20.92,20.92,0,0,0,0,14.84,17.73,17.73,0,0,0,9.72,10,20.48,20.48,0,0,0,15.19,0,17.73,17.73,0,0,0,9.72-10,20.92,20.92,0,0,0,0-14.84A18.13,18.13,0,0,0,473.37,148.83Zm-6.76,21.84a8.65,8.65,0,0,1-13.45,0,14,14,0,0,1-2.33-8.43,14.19,14.19,0,0,1,2.33-8.46,8.6,8.6,0,0,1,13.45,0,14.19,14.19,0,0,1,2.33,8.46A14,14,0,0,1,466.61,170.67Z"/><rect class="cls-1" x="482.55" y="144.34" width="9.47" height="35.74"/><rect class="cls-1" x="482.55" y="130.26" width="9.47" height="8.5"/><path class="cls-1" d="M525.74,147.16a11.3,11.3,0,0,0-3.86-2.79,13.63,13.63,0,0,0-11.29.45,12.61,12.61,0,0,0-4.35,4.39H506v-4.87h-9.27v35.74h9.48V159.8a8.51,8.51,0,0,1,2.05-6,6.71,6.71,0,0,1,5.19-2.27,5.84,5.84,0,0,1,4.6,1.81,6.89,6.89,0,0,1,1.6,4.74v22h9.48V156.74a15.21,15.21,0,0,0-.91-5.37A12.84,12.84,0,0,0,525.74,147.16Z"/><path class="cls-1" d="M560.12,161.3a14,14,0,0,0-4.08-1.85c-1.51-.41-3-.78-4.49-1.11-1.26-.28-2.48-.51-3.66-.7a19.19,19.19,0,0,1-3.14-.73,7.23,7.23,0,0,1-2.19-1.11,2.22,2.22,0,0,1-.84-1.85,3.26,3.26,0,0,1,1.67-3,10.5,10.5,0,0,1,9.27.14,5.32,5.32,0,0,1,2.09,4.08h8.57a12.42,12.42,0,0,0-4.39-8.64q-3.82-3.21-10.94-3.21a22.11,22.11,0,0,0-5.71.7,13.76,13.76,0,0,0-4.63,2.12,10.08,10.08,0,0,0-3.1,3.56,10.63,10.63,0,0,0-1.12,5,9.53,9.53,0,0,0,1.08,4.8,9,9,0,0,0,2.86,3.07,13.9,13.9,0,0,0,4,1.81c1.51.42,3.08.79,4.7,1.12l3.52.66a17.06,17.06,0,0,1,3,.8,6.18,6.18,0,0,1,2.09,1.25,2.69,2.69,0,0,1,.8,2,3.42,3.42,0,0,1-1.71,3,8.87,8.87,0,0,1-4.84,1.11,9.17,9.17,0,0,1-5.26-1.39,6.31,6.31,0,0,1-2.54-4.53h-8.78a12.43,12.43,0,0,0,4.67,9.16q4.25,3.45,12.05,3.45a21.85,21.85,0,0,0,6.09-.8,14.9,14.9,0,0,0,4.74-2.26,10.46,10.46,0,0,0,3.1-3.59,11.62,11.62,0,0,0,0-10A9.22,9.22,0,0,0,560.12,161.3Z"/><path class="cls-1" d="M261.84,51.11,278.1,67.37a45.06,45.06,0,1,1,0,63.73l-16.26,16.26a68.06,68.06,0,1,0,0-96.25Z"/><path class="cls-1" d="M242.63,181.41a45.06,45.06,0,0,1,63.73-63.72l16.26-16.27a68.07,68.07,0,1,0,0,96.26l-16.26-16.27A45.12,45.12,0,0,1,242.63,181.41Z"/></svg>