<svg id="Lager_1" data-name="Lager 1" xmlns="http://www.w3.org/2000/svg" viewBox="0 0 850 250"><defs><style>.cls-1{fill:#fff;}</style></defs><path class="cls-1" d="M491.44,110.05a11.08,11.08,0,0,1-7.35,2.41,12.39,12.39,0,0,1-5.68-1.29,12.62,12.62,0,0,1-4.32-3.62,16.85,16.85,0,0,1-2.71-5.54,24.82,24.82,0,0,1-.94-7,27.19,27.19,0,0,1,.83-6.9,17,17,0,0,1,2.51-5.57A12.07,12.07,0,0,1,478,78.77a12.72,12.72,0,0,1,6-1.35,10.73,10.73,0,0,1,7.11,2.26,9.9,9.9,0,0,1,3.41,6h10a19.92,19.92,0,0,0-1.95-6.62,17,17,0,0,0-4.14-5.33,19.32,19.32,0,0,0-6.24-3.55A24.37,24.37,0,0,0,484,68.92a24.05,24.05,0,0,0-9.93,2,21.82,21.82,0,0,0-7.52,5.51,24.6,24.6,0,0,0-4.77,8.29A30.69,30.69,0,0,0,460.12,95a29.21,29.21,0,0,0,1.78,10.35,25,25,0,0,0,5,8.15,22,22,0,0,0,7.59,5.36,24,24,0,0,0,9.65,1.92,24.52,24.52,0,0,0,8.88-1.43,18.94,18.94,0,0,0,6.24-3.87,17.18,17.18,0,0,0,3.9-5.4,17.75,17.75,0,0,0,1.6-6.37h-9.89A9.45,9.45,0,0,1,491.44,110.05Z"/><path class="cls-1" d="M533.65,119.29a17.81,17.81,0,0,0,9.72-10,21.07,21.07,0,0,0,0-14.84,17.81,17.81,0,0,0-9.72-10,20.48,20.48,0,0,0-15.19,0,17.73,17.73,0,0,0-9.72,10,20.92,20.92,0,0,0,0,14.84,17.73,17.73,0,0,0,9.72,10,20.48,20.48,0,0,0,15.19,0Zm-14.32-9a14,14,0,0,1-2.33-8.43,14.15,14.15,0,0,1,2.33-8.47,8.6,8.6,0,0,1,13.45,0,14.22,14.22,0,0,1,2.33,8.47,14,14,0,0,1-2.33,8.43,8.67,8.67,0,0,1-13.45,0Z"/><path class="cls-1" d="M558.19,115.66h.14a11.42,11.42,0,0,0,4,3.7,12.92,12.92,0,0,0,6.27,1.39,14.59,14.59,0,0,0,6.27-1.33,14,14,0,0,0,4.92-3.76,17.25,17.25,0,0,0,3.17-6,26,26,0,0,0,1.11-7.84A25.73,25.73,0,0,0,583,94.21a17.26,17.26,0,0,0-3.13-6A14.78,14.78,0,0,0,575,84.38,14.4,14.4,0,0,0,568.57,83a11.86,11.86,0,0,0-6.23,1.53,14.68,14.68,0,0,0-4.29,3.9h-.2V84h-9.13v47.45h9.47Zm.25-18A10.62,10.62,0,0,1,559.9,94a7.22,7.22,0,0,1,6.38-3.35q4.38,0,6.3,3.21a16,16,0,0,1,1.92,8.29q0,5.09-2.13,7.9a6.81,6.81,0,0,1-5.75,2.83,7.55,7.55,0,0,1-6.44-2.93,12.71,12.71,0,0,1-2.2-7.8A21.72,21.72,0,0,1,558.44,97.65Z"/><path class="cls-1" d="M603.92,100.06c-.28.83-.55,1.7-.8,2.61s-.48,1.75-.66,2.54-.44,1.77-.63,2.65h-.14c-.28-.88-.53-1.76-.76-2.65s-.48-1.63-.74-2.54-.52-1.78-.8-2.61L594.1,84h-10l9.61,25.43c.51,1.35.94,2.52,1.29,3.52s.63,1.87.83,2.61a20.1,20.1,0,0,1,.46,2,10.35,10.35,0,0,1,.14,1.57,5.05,5.05,0,0,1-1.22,3.55c-.82.88-2.17,1.32-4.08,1.32h-3.34v7.46h5.57a16.75,16.75,0,0,0,4.63-.56,8.41,8.41,0,0,0,3.35-1.85,11.93,11.93,0,0,0,2.51-3.34,39.31,39.31,0,0,0,2.12-5L618.48,84h-9.54Z"/><path class="cls-1" d="M635.25,85.08a13.4,13.4,0,0,0-3.62,4.6h-.21V84h-9.13V119.7h9.48V102.29c0-3.76,1-6.48,3-8.15a9.8,9.8,0,0,1,7.67-2h.21v-8.3a7.13,7.13,0,0,0-2.23-.27A8.32,8.32,0,0,0,635.25,85.08Z"/><rect class="cls-1" x="647.35" y="83.96" width="9.47" height="35.74"/><rect class="cls-1" x="647.35" y="69.89" width="9.47" height="8.5"/><path class="cls-1" d="M686.32,87.73h-.14a11.2,11.2,0,0,0-4.08-3.49A12.73,12.73,0,0,0,676.29,83a15.61,15.61,0,0,0-6.24,1.22,13.68,13.68,0,0,0-4.87,3.52A16.56,16.56,0,0,0,662,93.26a21.65,21.65,0,0,0-1.15,7.22,18.11,18.11,0,0,0,1.36,7.21,17,17,0,0,0,3.55,5.36,15.36,15.36,0,0,0,10.84,4.49,11.53,11.53,0,0,0,5.57-1.18,13.9,13.9,0,0,0,3.76-3h.21v3.91q0,7.44-7.94,7.45a8.68,8.68,0,0,1-5-1.15,5.63,5.63,0,0,1-2.2-2.82h-9.4a11.55,11.55,0,0,0,5,8.18q4.29,3,11.67,3a26,26,0,0,0,7.31-1,13.51,13.51,0,0,0,5.58-3.07,12.29,12.29,0,0,0,3.13-4.45,16.6,16.6,0,0,0,1.12-6.41V84h-9.13Zm-.21,16.3a8.75,8.75,0,0,1-1.5,3.06,6.92,6.92,0,0,1-2.61,2.09,8.7,8.7,0,0,1-3.83.77,7.46,7.46,0,0,1-5.89-2.51q-2.19-2.5-2.19-7.1a10.77,10.77,0,0,1,2.19-7.14,7.21,7.21,0,0,1,5.82-2.62,8.64,8.64,0,0,1,3.76.77,7.4,7.4,0,0,1,2.65,2.09,9.07,9.07,0,0,1,1.57,3.1,13.44,13.44,0,0,1,.52,3.73A13.73,13.73,0,0,1,686.11,104Z"/><path class="cls-1" d="M729.17,86.79A11.3,11.3,0,0,0,725.3,84a12.31,12.31,0,0,0-5-1,11.82,11.82,0,0,0-6.06,1.39,13.91,13.91,0,0,0-4.32,4.25h-.21V69.89h-9.48V119.7h9.48V99.43a8.53,8.53,0,0,1,2.05-6,6.74,6.74,0,0,1,5.19-2.26A5.81,5.81,0,0,1,721.5,93a6.89,6.89,0,0,1,1.6,4.74V119.7h9.48V96.37a15.17,15.17,0,0,0-.91-5.37A13,13,0,0,0,729.17,86.79Z"/><path class="cls-1" d="M754.83,112.74H753a4.06,4.06,0,0,1-2.58-.77,3.37,3.37,0,0,1-1-2.79v-19h6.13V84h-6.13V72.82H740.2V84h-5v6.27h5v21a9,9,0,0,0,.87,4.18,7.18,7.18,0,0,0,2.26,2.65,8.56,8.56,0,0,0,3.1,1.36,15.46,15.46,0,0,0,3.45.38h2.51c.74,0,1.37,0,1.88-.07a14.32,14.32,0,0,0,1.53-.07v-7A7.91,7.91,0,0,1,754.83,112.74Z"/><path class="cls-1" d="M378,73.3h-59.9a67.69,67.69,0,0,0-18.68-35.25L283.19,54.31a45.06,45.06,0,1,1-63.73,0L203.2,38.05A68.06,68.06,0,1,0,318.63,96.13h36.58v89.72H378V96.13H403.2v89.72H426V73.3H378Z"/><polygon class="cls-1" points="462.74 183.68 473.42 183.68 473.42 161.88 496.33 161.88 496.33 152.74 473.42 152.74 473.42 140.07 500.45 140.07 500.45 131.01 462.74 131.01 462.74 183.68"/><rect class="cls-1" x="505.83" y="131.01" width="10.02" height="52.67"/><path class="cls-1" d="M554.63,150.64a19,19,0,0,0-6.23-4.23,21.55,21.55,0,0,0-16,0A18.67,18.67,0,0,0,522.07,157a22.23,22.23,0,0,0,0,15.69,18.75,18.75,0,0,0,10.28,10.57,21.68,21.68,0,0,0,16,0,18.75,18.75,0,0,0,10.28-10.57,22.09,22.09,0,0,0,0-15.69A19.12,19.12,0,0,0,554.63,150.64Zm-7.15,23.09a9.14,9.14,0,0,1-14.21,0,14.74,14.74,0,0,1-2.47-8.91,15,15,0,0,1,2.47-8.95,9.09,9.09,0,0,1,14.21,0,15,15,0,0,1,2.47,8.95A14.74,14.74,0,0,1,547.48,173.73Z"/><path class="cls-1" d="M600.48,163.42c-.49,1.67-.88,3.24-1.18,4.72-.19.83-.37,1.62-.51,2.35h-.15c-.2-.73-.39-1.52-.59-2.35s-.39-1.45-.59-2.29-.39-1.67-.59-2.5l-4.93-17.46h-8.55l-4.71,17.46a23.36,23.36,0,0,0-.63,2.43q-.25,1.26-.48,2.28c-.19.84-.37,1.65-.51,2.43h-.15c-.15-.73-.32-1.52-.52-2.35s-.33-1.45-.55-2.29-.43-1.64-.62-2.43l-4.57-17.53H560.7l11,37.79h9.06L586,165.12c.2-.74.39-1.5.59-2.29s.39-1.49.59-2.13.39-1.45.59-2.14h.14c.15.69.32,1.4.52,2.14s.32,1.35.52,2.13.41,1.55.66,2.29l5,18.56h9.13L615,145.89h-9.72Z"/></svg>