<svg id="Lager_1" data-name="Lager 1" xmlns="http://www.w3.org/2000/svg" viewBox="0 0 850 250"><defs><style>.cls-1{fill:#fff;}</style></defs><polygon class="cls-1" points="388 181.05 398.1 181.05 398.1 160.41 419.79 160.41 419.79 151.77 398.1 151.77 398.1 139.78 423.69 139.78 423.69 131.2 388 131.2 388 181.05"/><path class="cls-1" d="M457.15,149.78a18.15,18.15,0,0,0-5.89-4,20.51,20.51,0,0,0-15.2,0,18.15,18.15,0,0,0-5.89,4,17.86,17.86,0,0,0-3.83,6,20.95,20.95,0,0,0,0,14.85,17.72,17.72,0,0,0,3.83,6,18,18,0,0,0,5.89,4,20.51,20.51,0,0,0,15.2,0,18,18,0,0,0,5.89-4,17.72,17.72,0,0,0,3.83-6,20.95,20.95,0,0,0,0-14.85A17.86,17.86,0,0,0,457.15,149.78Zm-6.76,21.86a8.68,8.68,0,0,1-13.46,0,14.06,14.06,0,0,1-2.33-8.44,14.22,14.22,0,0,1,2.33-8.47,8.61,8.61,0,0,1,13.46,0,14.22,14.22,0,0,1,2.33,8.47A14.06,14.06,0,0,1,450.39,171.64Z"/><path class="cls-1" d="M488.81,165.92a8.69,8.69,0,0,1-1.92,5.82,6.53,6.53,0,0,1-5.26,2.27,5.58,5.58,0,0,1-4.5-1.68,7.19,7.19,0,0,1-1.43-4.81V145.29h-9.41v23.84q0,5.93,3.21,9.41t9.2,3.48a12.12,12.12,0,0,0,6.1-1.35,14.14,14.14,0,0,0,4.15-3.8h.21v4.18h9.13V145.29h-9.48Z"/><path class="cls-1" d="M533.67,148.11a11.3,11.3,0,0,0-3.87-2.79,12,12,0,0,0-15.65,4.85h-.21v-4.88h-9.27v35.76h9.48V160.76a8.53,8.53,0,0,1,2.05-6,6.72,6.72,0,0,1,5.2-2.26,5.82,5.82,0,0,1,4.6,1.81,6.89,6.89,0,0,1,1.6,4.74v22h9.48V157.69a15.34,15.34,0,0,0-.9-5.36A13.14,13.14,0,0,0,533.67,148.11Z"/><path class="cls-1" d="M566.41,149.61h-.21a12.79,12.79,0,0,0-3.9-3.77,11.52,11.52,0,0,0-6.21-1.53A13.47,13.47,0,0,0,550,145.7a14.94,14.94,0,0,0-4.85,3.87,17.59,17.59,0,0,0-3.17,6,25.2,25.2,0,0,0-1.12,7.67,26,26,0,0,0,1.12,7.84,17.8,17.8,0,0,0,3.1,6,13.64,13.64,0,0,0,4.78,3.77,14.14,14.14,0,0,0,6.13,1.32,11.9,11.9,0,0,0,10.67-5.71h.14v4.67h9.13V131.2h-9.48Zm-1.95,21.64a7.51,7.51,0,0,1-6.42,2.9,6.42,6.42,0,0,1-5.64-2.86c-1.31-1.91-2-4.6-2-8.09a14.9,14.9,0,0,1,2-8.08,6.52,6.52,0,0,1,5.89-3.14,8.21,8.21,0,0,1,3.87.83,6.9,6.9,0,0,1,2.55,2.34,10.66,10.66,0,0,1,1.42,3.59,21.55,21.55,0,0,1,.46,4.67A12.8,12.8,0,0,1,564.46,171.25Z"/><path class="cls-1" d="M611.13,175.65v-18.2q0-6.27-3.52-9.72t-11.54-3.45a21,21,0,0,0-6.76,1,14.27,14.27,0,0,0-4.74,2.58,10.78,10.78,0,0,0-2.86,3.73,11.58,11.58,0,0,0-1.05,4.5h8.44a4.9,4.9,0,0,1,1.88-3.8,8.54,8.54,0,0,1,5-1.22,7.31,7.31,0,0,1,4.5,1.15,3.72,3.72,0,0,1,1.49,3.1A2.68,2.68,0,0,1,599.9,158a39.83,39.83,0,0,1-6.55,1.33,40.85,40.85,0,0,0-5.61,1.15,15.43,15.43,0,0,0-4.57,2,9.74,9.74,0,0,0-3.07,3.35,10.17,10.17,0,0,0-1.11,5q0,5.37,3.48,8.15a14,14,0,0,0,9,2.79,18.31,18.31,0,0,0,4-.38,12.34,12.34,0,0,0,2.89-1,8.46,8.46,0,0,0,2.1-1.5A12.12,12.12,0,0,0,602,177h.14a20.8,20.8,0,0,0,.42,2.3,4.86,4.86,0,0,0,.7,1.68h9.13v-.35C611.54,180,611.13,178.34,611.13,175.65Zm-8.93-7.32a6.05,6.05,0,0,1-.55,2.54A6.33,6.33,0,0,1,600,173a8.76,8.76,0,0,1-2.65,1.54,10.24,10.24,0,0,1-3.59.59,7.32,7.32,0,0,1-4-1,3.9,3.9,0,0,1-1.53-3.52A3.94,3.94,0,0,1,590,167a19.14,19.14,0,0,1,5.58-1.95c1.21-.28,2.41-.57,3.59-.87a10.83,10.83,0,0,0,3-1.22Z"/><path class="cls-1" d="M632.76,174a4.06,4.06,0,0,1-2.58-.76,3.37,3.37,0,0,1-1-2.79v-19h6.13v-6.28h-6.13V134h-9.27v11.15h-5v6.28h5v21a8.87,8.87,0,0,0,.87,4.18,7.18,7.18,0,0,0,2.26,2.65,8.56,8.56,0,0,0,3.1,1.36,15.49,15.49,0,0,0,3.46.39h2.5c.75,0,1.38,0,1.89-.07s1.07,0,1.53-.07v-7a8.06,8.06,0,0,1-1,.06Z"/><rect class="cls-1" x="640.73" y="131.1" width="9.48" height="8.51"/><rect class="cls-1" x="640.73" y="145.18" width="9.48" height="35.76"/><path class="cls-1" d="M686.36,149.68a18.1,18.1,0,0,0-5.89-4,20.51,20.51,0,0,0-15.2,0,17.77,17.77,0,0,0-9.73,10,20.92,20.92,0,0,0,0,14.84,17.77,17.77,0,0,0,9.73,10,20.51,20.51,0,0,0,15.2,0,17.71,17.71,0,0,0,9.72-10,20.92,20.92,0,0,0,0-14.84A17.92,17.92,0,0,0,686.36,149.68Zm-6.77,21.85a8.65,8.65,0,0,1-13.45,0,13.94,13.94,0,0,1-2.34-8.43,14.13,14.13,0,0,1,2.34-8.47,8.6,8.6,0,0,1,13.45,0,14.13,14.13,0,0,1,2.34,8.47A13.94,13.94,0,0,1,679.59,171.53Z"/><path class="cls-1" d="M724.68,148a11.3,11.3,0,0,0-3.87-2.79,13.63,13.63,0,0,0-11.29.45,12.55,12.55,0,0,0-4.36,4.39H705v-4.88h-9.27V181h9.48V160.66a8.54,8.54,0,0,1,2.06-6,6.71,6.71,0,0,1,5.19-2.27,5.81,5.81,0,0,1,4.6,1.82,6.88,6.88,0,0,1,1.61,4.74v22h9.48V157.59a15.21,15.21,0,0,0-.91-5.37A12.84,12.84,0,0,0,724.68,148Z"/><rect class="cls-1" x="11.37" y="158.04" width="112.55" height="22.82"/><polygon class="cls-1" points="178.34 90.75 244.51 90.75 244.51 67.93 131.96 67.93 131.96 90.75 134.95 90.75 131.96 101.23 212.26 124.19 131.96 147.15 135.07 158.04 131.96 158.04 131.96 180.87 244.51 180.87 244.51 158.04 176.89 158.04 246.44 138.16 242.45 124.19 246.44 110.22 178.34 90.75"/><polygon class="cls-1" points="320.41 67.91 297.59 67.91 297.59 158.04 275.37 158.04 275.37 67.91 252.55 67.91 252.55 180.45 252.73 180.45 252.73 180.87 365.27 180.87 365.27 158.04 320.41 158.04 320.41 67.91"/><rect class="cls-1" x="388" y="68.11" width="10.1" height="49.81"/><path class="cls-1" d="M414.54,97.65a8.51,8.51,0,0,1,2-6,6.71,6.71,0,0,1,5.19-2.27,5.84,5.84,0,0,1,4.6,1.81A6.89,6.89,0,0,1,428,96v22h9.48V94.59a15.21,15.21,0,0,0-.91-5.37,13,13,0,0,0-2.5-4.21,11.43,11.43,0,0,0-3.87-2.79,13.63,13.63,0,0,0-11.29.45,12.61,12.61,0,0,0-4.35,4.39h-.21V82.19h-9.27v35.74h9.48Z"/><path class="cls-1" d="M445.47,109.43a9,9,0,0,0,.87,4.18,7.25,7.25,0,0,0,2.27,2.64,8.32,8.32,0,0,0,3.1,1.36,15.31,15.31,0,0,0,3.44.39h2.51c.74,0,1.37,0,1.88-.07s1.07,0,1.54-.07v-7a6.46,6.46,0,0,1-1,.07h-1.81a4.06,4.06,0,0,1-2.58-.77,3.36,3.36,0,0,1-1-2.78v-19h6.13V82.19h-6.13V71h-9.27V82.19h-5v6.27h5Z"/><path class="cls-1" d="M497.76,94a20.26,20.26,0,0,0-3.38-6.8,15.21,15.21,0,0,0-5.51-4.42,18.66,18.66,0,0,0-14.73-.11,17.08,17.08,0,0,0-5.57,4,17.66,17.66,0,0,0-3.63,5.95,21,21,0,0,0-1.29,7.42,22.53,22.53,0,0,0,1.22,7.46,16.5,16.5,0,0,0,9.41,10,20.16,20.16,0,0,0,7.9,1.46,19.28,19.28,0,0,0,6.21-.94,16.36,16.36,0,0,0,4.84-2.54,13.74,13.74,0,0,0,3.34-3.73,14.2,14.2,0,0,0,1.78-4.49H489a6.75,6.75,0,0,1-2.44,3.2,7.54,7.54,0,0,1-4.45,1.19,8.31,8.31,0,0,1-6.31-2.37,11.35,11.35,0,0,1-2.82-6.55H498.9A31.31,31.31,0,0,0,497.76,94Zm-24.63,2.19a10.55,10.55,0,0,1,2.58-5.61,7.5,7.5,0,0,1,5.71-2,7.11,7.11,0,0,1,5.33,2.12A8.43,8.43,0,0,1,489,96.19Z"/><path class="cls-1" d="M512.77,100.51q0-5.64,3-8.15a9.85,9.85,0,0,1,7.67-2h.21V82.05a6.79,6.79,0,0,0-2.23-.28,8.32,8.32,0,0,0-5.16,1.53,13.5,13.5,0,0,0-3.62,4.6h-.21V82.19h-9.13v35.74h9.48Z"/><path class="cls-1" d="M549.07,91.24a6.94,6.94,0,0,1,1.6,4.74v22h9.47V94.59a15.44,15.44,0,0,0-.9-5.37A13,13,0,0,0,556.73,85a11.43,11.43,0,0,0-3.87-2.79,13.61,13.61,0,0,0-11.28.45,12.55,12.55,0,0,0-4.36,4.39H537V82.19h-9.26v35.74h9.47V97.65a8.51,8.51,0,0,1,2.06-6,6.71,6.71,0,0,1,5.19-2.27A5.86,5.86,0,0,1,549.07,91.24Z"/><path class="cls-1" d="M569.06,113.5a16.81,16.81,0,0,0,5.82,4,20.16,20.16,0,0,0,7.9,1.46A19.17,19.17,0,0,0,589,118a16.29,16.29,0,0,0,4.85-2.54,13.74,13.74,0,0,0,3.34-3.73,14.2,14.2,0,0,0,1.78-4.49h-9.34a6.75,6.75,0,0,1-2.44,3.2,7.55,7.55,0,0,1-4.46,1.19,8.3,8.3,0,0,1-6.3-2.37,11.35,11.35,0,0,1-2.82-6.55H599.5A30.93,30.93,0,0,0,598.35,94,20.06,20.06,0,0,0,595,87.2a15.29,15.29,0,0,0-5.51-4.42,17.62,17.62,0,0,0-20.31,3.87,17.8,17.8,0,0,0-3.62,5.95,21,21,0,0,0-1.29,7.42,22.53,22.53,0,0,0,1.22,7.46A16.82,16.82,0,0,0,569.06,113.5Zm7.24-22.92a7.52,7.52,0,0,1,5.72-2,7.11,7.11,0,0,1,5.33,2.12,8.43,8.43,0,0,1,2.26,5.54H573.73A10.54,10.54,0,0,1,576.3,90.58Z"/><path class="cls-1" d="M606.05,109.43a9,9,0,0,0,.87,4.18,7.25,7.25,0,0,0,2.27,2.64,8.39,8.39,0,0,0,3.1,1.36,15.34,15.34,0,0,0,3.45.39h2.5c.75,0,1.37,0,1.89-.07s1.06,0,1.53-.07v-7a6.46,6.46,0,0,1-1,.07h-1.81a4.06,4.06,0,0,1-2.58-.77,3.36,3.36,0,0,1-1-2.78v-19h6.13V82.19h-6.13V71h-9.27V82.19h-4.94v6.27h4.94Z"/><path class="cls-1" d="M655.9,89.18c0-1,0-2.13-.07-3.31s-.09-2.31-.14-3.38-.16-2.42-.21-3.63h.14l.7,3.42c.23,1,.46,2,.7,3.06s.48,2.07.76,3l8.36,29.4h9.69l8.57-29.4c.23-.93.47-1.93.73-3s.5-2.09.73-3.06l.7-3.42h.14q-.15,1.81-.21,3.63c-.1,1.07-.15,2.19-.18,3.38s0,2.28,0,3.31v28.56h9.4V67.93H681.26l-7,25c-.46,1.58-.87,3.16-1.21,4.73s-.67,3-.94,4.32c-.33,1.54-.63,3-.91,4.39H671c-.28-1.39-.58-2.85-.91-4.39-.27-1.3-.61-2.74-1-4.32s-.8-3.15-1.21-4.73l-7-25H646.64v49.81h9.26Z"/><path class="cls-1" d="M734.73,93.81A20,20,0,0,0,731.35,87a15.2,15.2,0,0,0-5.5-4.43,17.52,17.52,0,0,0-7.6-1.57,17.1,17.1,0,0,0-12.71,5.44,17.68,17.68,0,0,0-3.62,6,21,21,0,0,0-1.29,7.41,22.24,22.24,0,0,0,1.22,7.46,17,17,0,0,0,3.59,6,16.65,16.65,0,0,0,5.81,4,20,20,0,0,0,7.91,1.46,19.21,19.21,0,0,0,6.2-.94,16,16,0,0,0,4.84-2.54,13.88,13.88,0,0,0,5.12-8.22H726a6.71,6.71,0,0,1-2.44,3.2,7.5,7.5,0,0,1-4.46,1.19,8.29,8.29,0,0,1-6.3-2.37,11.42,11.42,0,0,1-2.83-6.55h25.92A31,31,0,0,0,734.73,93.81ZM710.1,96a10.59,10.59,0,0,1,2.58-5.6,7.52,7.52,0,0,1,5.71-2.06,7.09,7.09,0,0,1,5.33,2.12A8.44,8.44,0,0,1,726,96Z"/><path class="cls-1" d="M765.94,86.32h-.21a12.43,12.43,0,0,0-3.9-3.76,11.49,11.49,0,0,0-6.2-1.54,13.51,13.51,0,0,0-6.13,1.4,15,15,0,0,0-4.84,3.86,17.59,17.59,0,0,0-3.17,6,24.83,24.83,0,0,0-1.12,7.66,25.64,25.64,0,0,0,1.12,7.84,17.71,17.71,0,0,0,3.1,6,13.6,13.6,0,0,0,4.77,3.76,14.14,14.14,0,0,0,6.13,1.32,11.86,11.86,0,0,0,10.66-5.71h.14v4.67h9.13V67.93h-9.48ZM764,108a7.49,7.49,0,0,1-6.41,2.89,6.41,6.41,0,0,1-5.64-2.85c-1.3-1.91-2-4.6-2-8.09a14.93,14.93,0,0,1,2-8.08,6.53,6.53,0,0,1,5.89-3.13,8.26,8.26,0,0,1,3.87.83,6.87,6.87,0,0,1,2.54,2.34,10.79,10.79,0,0,1,1.43,3.59,22.2,22.2,0,0,1,.45,4.66A12.82,12.82,0,0,1,764,108Z"/><rect class="cls-1" x="781.57" y="67.93" width="9.47" height="8.5"/><rect class="cls-1" x="781.57" y="82" width="9.47" height="35.74"/><path class="cls-1" d="M827.8,112.44V94.26q0-6.27-3.51-9.72t-11.53-3.45a20.92,20.92,0,0,0-6.76,1,14.37,14.37,0,0,0-4.74,2.58,10.87,10.87,0,0,0-2.86,3.72,11.57,11.57,0,0,0-1,4.5h8.43a4.93,4.93,0,0,1,1.88-3.8,8.54,8.54,0,0,1,5-1.22A7.37,7.37,0,0,1,817.18,89a3.71,3.71,0,0,1,1.5,3.1,2.7,2.7,0,0,1-2.09,2.72A41.41,41.41,0,0,1,810,96.14a42.4,42.4,0,0,0-5.61,1.15,15.63,15.63,0,0,0-4.56,2.06,9.53,9.53,0,0,0-3.07,3.34,10.17,10.17,0,0,0-1.11,5q0,5.35,3.48,8.15a13.93,13.93,0,0,0,9,2.79,17.71,17.71,0,0,0,4-.39,12.05,12.05,0,0,0,2.89-1,8.15,8.15,0,0,0,2.09-1.5,13.19,13.19,0,0,0,1.57-1.91h.14a17.28,17.28,0,0,0,.42,2.3,4.63,4.63,0,0,0,.69,1.67h9.13v-.35Q827.8,116.49,827.8,112.44Zm-8.91-7.31a6.06,6.06,0,0,1-.56,2.54,6.21,6.21,0,0,1-1.64,2.16,8.49,8.49,0,0,1-2.64,1.53,10,10,0,0,1-3.59.6,7.26,7.26,0,0,1-4-1,4.64,4.64,0,0,1,.28-7.14,18.63,18.63,0,0,1,5.57-2c1.21-.27,2.4-.56,3.59-.87a11.08,11.08,0,0,0,3-1.21Z"/></svg>