<svg id="Lager_1" data-name="Lager 1" xmlns="http://www.w3.org/2000/svg" viewBox="0 0 850 250"><polygon points="392.78 181.05 402.89 181.05 402.89 160.41 424.57 160.41 424.57 151.77 402.89 151.77 402.89 139.78 428.48 139.78 428.48 131.2 392.78 131.2 392.78 181.05"/><path d="M461.94,149.78a18.26,18.26,0,0,0-5.89-4,20.51,20.51,0,0,0-15.2,0,17.77,17.77,0,0,0-9.73,10,20.95,20.95,0,0,0,0,14.85,17.79,17.79,0,0,0,9.73,10,20.51,20.51,0,0,0,15.2,0,18.1,18.1,0,0,0,5.89-4,17.87,17.87,0,0,0,3.83-6,20.95,20.95,0,0,0,0-14.85A18,18,0,0,0,461.94,149.78Zm-6.77,21.86a8.67,8.67,0,0,1-13.45,0,14,14,0,0,1-2.34-8.44,14.15,14.15,0,0,1,2.34-8.47,8.6,8.6,0,0,1,13.45,0,14.15,14.15,0,0,1,2.34,8.47A14,14,0,0,1,455.17,171.64Z"/><path d="M493.59,165.92a8.74,8.74,0,0,1-1.91,5.82,6.55,6.55,0,0,1-5.27,2.27,5.58,5.58,0,0,1-4.49-1.68,7.14,7.14,0,0,1-1.43-4.81V145.29h-9.41v23.84q0,5.93,3.2,9.41t9.2,3.48a12.09,12.09,0,0,0,6.1-1.35,14,14,0,0,0,4.15-3.8h.21v4.18h9.13V145.29h-9.48Z"/><path d="M538.45,148.11a11.3,11.3,0,0,0-3.87-2.79,13.63,13.63,0,0,0-11.29.45,12.5,12.5,0,0,0-4.36,4.4h-.21v-4.88h-9.27v35.76h9.48V160.76a8.54,8.54,0,0,1,2.06-6,6.7,6.7,0,0,1,5.19-2.26,5.81,5.81,0,0,1,4.6,1.81,6.89,6.89,0,0,1,1.61,4.74v22h9.48V157.69a15.11,15.11,0,0,0-.91-5.36A12.79,12.79,0,0,0,538.45,148.11Z"/><path d="M571.19,149.61H571a12.71,12.71,0,0,0-3.91-3.77,11.49,11.49,0,0,0-6.2-1.53,13.54,13.54,0,0,0-6.14,1.39,14.9,14.9,0,0,0-4.84,3.87,17.59,17.59,0,0,0-3.17,6,24.89,24.89,0,0,0-1.12,7.67,25.64,25.64,0,0,0,1.12,7.84,17.62,17.62,0,0,0,3.1,6,13.52,13.52,0,0,0,4.77,3.77,14.18,14.18,0,0,0,6.14,1.32,11.86,11.86,0,0,0,10.66-5.71h.14v4.67h9.14V131.2h-9.49Zm-2,21.64a7.5,7.5,0,0,1-6.41,2.9,6.44,6.44,0,0,1-5.65-2.86c-1.3-1.91-1.95-4.6-1.95-8.09a14.81,14.81,0,0,1,2-8.08,6.5,6.5,0,0,1,5.89-3.14,8.26,8.26,0,0,1,3.87.83,6.87,6.87,0,0,1,2.54,2.34,10.67,10.67,0,0,1,1.43,3.59,22.23,22.23,0,0,1,.45,4.67A12.8,12.8,0,0,1,569.24,171.25Z"/><path d="M615.91,175.65v-18.2q0-6.27-3.52-9.72t-11.53-3.45a21,21,0,0,0-6.77,1,14.48,14.48,0,0,0-4.74,2.58,10.91,10.91,0,0,0-2.86,3.73,11.4,11.4,0,0,0-1,4.5h8.43a4.9,4.9,0,0,1,1.89-3.8,8.5,8.5,0,0,1,5-1.22,7.3,7.3,0,0,1,4.49,1.15,3.71,3.71,0,0,1,1.5,3.1,2.69,2.69,0,0,1-2.09,2.72,39.83,39.83,0,0,1-6.55,1.33,41.31,41.31,0,0,0-5.62,1.15,15.36,15.36,0,0,0-4.56,2,9.65,9.65,0,0,0-3.07,3.35,10.17,10.17,0,0,0-1.11,5q0,5.37,3.48,8.15a13.93,13.93,0,0,0,9,2.79,18.4,18.4,0,0,0,4-.38,12.5,12.5,0,0,0,2.89-1,8.4,8.4,0,0,0,2.09-1.5,12.17,12.17,0,0,0,1.57-1.92h.14a17,17,0,0,0,.42,2.3A4.68,4.68,0,0,0,608,181h9.13v-.35Q615.91,179.69,615.91,175.65ZM607,168.33a6.06,6.06,0,0,1-.56,2.54,6.21,6.21,0,0,1-1.64,2.16,8.64,8.64,0,0,1-2.65,1.54,10.2,10.2,0,0,1-3.59.59,7.26,7.26,0,0,1-4-1,3.9,3.9,0,0,1-1.53-3.52,3.94,3.94,0,0,1,1.81-3.63,19.14,19.14,0,0,1,5.58-1.95c1.2-.28,2.4-.57,3.59-.87a11.08,11.08,0,0,0,3-1.22Z"/><path d="M637.55,174a4.06,4.06,0,0,1-2.58-.76,3.37,3.37,0,0,1-1-2.79v-19h6.14v-6.28H634V134h-9.27v11.15h-5v6.28h5v21a9,9,0,0,0,.87,4.18,7.2,7.2,0,0,0,2.27,2.65,8.56,8.56,0,0,0,3.1,1.36,15.47,15.47,0,0,0,3.45.39h2.51c.74,0,1.37,0,1.88-.07s1.07,0,1.54-.07v-7a8.06,8.06,0,0,1-1,.06Z"/><rect x="645.52" y="131.1" width="9.48" height="8.51"/><rect x="645.52" y="145.18" width="9.48" height="35.76"/><path d="M691.14,149.68a18,18,0,0,0-5.89-4,20.51,20.51,0,0,0-15.2,0,18.1,18.1,0,0,0-5.89,4,17.92,17.92,0,0,0-3.83,6,20.92,20.92,0,0,0,0,14.84,17.71,17.71,0,0,0,9.72,10,20.51,20.51,0,0,0,15.2,0,17.77,17.77,0,0,0,9.73-10,20.92,20.92,0,0,0,0-14.84A17.94,17.94,0,0,0,691.14,149.68Zm-6.76,21.85a8.65,8.65,0,0,1-13.45,0,13.94,13.94,0,0,1-2.34-8.43,14.13,14.13,0,0,1,2.34-8.47,8.6,8.6,0,0,1,13.45,0,14.13,14.13,0,0,1,2.34,8.47A13.94,13.94,0,0,1,684.38,171.53Z"/><path d="M729.47,148a11.3,11.3,0,0,0-3.87-2.79,13.63,13.63,0,0,0-11.29.45,12.55,12.55,0,0,0-4.36,4.39h-.21v-4.88h-9.27V181H710V160.66a8.49,8.49,0,0,1,2.06-6,6.71,6.71,0,0,1,5.19-2.27,5.81,5.81,0,0,1,4.6,1.82,6.87,6.87,0,0,1,1.6,4.74v22h9.49V157.59a15.44,15.44,0,0,0-.91-5.37A13,13,0,0,0,729.47,148Z"/><rect x="16.16" y="158.04" width="112.55" height="22.82"/><polygon points="183.12 90.75 249.29 90.75 249.29 67.93 136.74 67.93 136.74 90.75 139.74 90.75 136.74 101.23 217.05 124.19 136.74 147.15 139.86 158.04 136.74 158.04 136.74 180.87 249.29 180.87 249.29 158.04 181.67 158.04 251.23 138.16 247.24 124.19 251.23 110.22 183.12 90.75"/><polygon points="325.2 67.91 302.38 67.91 302.38 158.04 280.16 158.04 280.16 67.91 257.33 67.91 257.33 180.45 257.51 180.45 257.51 180.87 370.06 180.87 370.06 158.04 325.2 158.04 325.2 67.91"/><rect x="392.78" y="68.11" width="10.1" height="49.81"/><path d="M419.32,97.65a8.51,8.51,0,0,1,2.06-6,6.71,6.71,0,0,1,5.19-2.27,5.84,5.84,0,0,1,4.6,1.81,6.89,6.89,0,0,1,1.6,4.74v22h9.48V94.59a15.44,15.44,0,0,0-.91-5.37A12.84,12.84,0,0,0,438.83,85,11.43,11.43,0,0,0,435,82.22a13.61,13.61,0,0,0-11.28.45,12.55,12.55,0,0,0-4.36,4.39h-.2V82.19h-9.27v35.74h9.47Z"/><path d="M450.26,109.43a9,9,0,0,0,.87,4.18,7.23,7.23,0,0,0,2.26,2.64,8.39,8.39,0,0,0,3.1,1.36,15.47,15.47,0,0,0,3.45.39h2.51c.74,0,1.37,0,1.88-.07s1.07,0,1.53-.07v-7a6.33,6.33,0,0,1-1,.07h-1.81a4.06,4.06,0,0,1-2.58-.77,3.36,3.36,0,0,1-1-2.78v-19h6.13V82.19h-6.13V71h-9.26V82.19h-4.95v6.27h4.95Z"/><path d="M502.54,94a19.89,19.89,0,0,0-3.38-6.8,15.17,15.17,0,0,0-5.5-4.42,17.6,17.6,0,0,0-20.31,3.87,17.64,17.64,0,0,0-3.62,5.95,21,21,0,0,0-1.29,7.42,22.53,22.53,0,0,0,1.22,7.46,16.53,16.53,0,0,0,9.4,10A20.21,20.21,0,0,0,487,119a19.21,19.21,0,0,0,6.2-.94,16.23,16.23,0,0,0,4.84-2.54,13.77,13.77,0,0,0,3.35-3.73,13.94,13.94,0,0,0,1.77-4.49H493.8a6.81,6.81,0,0,1-2.44,3.2,7.55,7.55,0,0,1-4.46,1.19,8.3,8.3,0,0,1-6.3-2.37,11.35,11.35,0,0,1-2.82-6.55h25.91A30.93,30.93,0,0,0,502.54,94Zm-24.63,2.19a10.63,10.63,0,0,1,2.58-5.61,7.51,7.51,0,0,1,5.71-2,7.09,7.09,0,0,1,5.33,2.12,8.44,8.44,0,0,1,2.27,5.54Z"/><path d="M517.55,100.51q0-5.64,3-8.15a9.83,9.83,0,0,1,7.66-2h.21V82.05a6.71,6.71,0,0,0-2.23-.28A8.27,8.27,0,0,0,521,83.3a13.38,13.38,0,0,0-3.62,4.6h-.21V82.19h-9.13v35.74h9.47Z"/><path d="M553.85,91.24a6.89,6.89,0,0,1,1.6,4.74v22h9.48V94.59a15.21,15.21,0,0,0-.91-5.37A12.84,12.84,0,0,0,561.51,85a11.3,11.3,0,0,0-3.86-2.79,13.63,13.63,0,0,0-11.29.45A12.52,12.52,0,0,0,542,87.06h-.21V82.19h-9.27v35.74H542V97.65a8.51,8.51,0,0,1,2-6,6.71,6.71,0,0,1,5.19-2.27A5.84,5.84,0,0,1,553.85,91.24Z"/><path d="M573.85,113.5a16.68,16.68,0,0,0,5.81,4,20.21,20.21,0,0,0,7.91,1.46,19.26,19.26,0,0,0,6.2-.94,16.23,16.23,0,0,0,4.84-2.54,13.77,13.77,0,0,0,3.35-3.73,13.94,13.94,0,0,0,1.77-4.49H594.4a6.81,6.81,0,0,1-2.44,3.2,7.57,7.57,0,0,1-4.46,1.19,8.32,8.32,0,0,1-6.31-2.37,11.41,11.41,0,0,1-2.82-6.55h25.92A30.93,30.93,0,0,0,603.14,94a20.07,20.07,0,0,0-3.38-6.8,15.26,15.26,0,0,0-5.5-4.42,18.69,18.69,0,0,0-14.74-.11,17.18,17.18,0,0,0-5.57,4,17.64,17.64,0,0,0-3.62,5.95A21,21,0,0,0,569,100a22.28,22.28,0,0,0,1.22,7.46A16.82,16.82,0,0,0,573.85,113.5Zm7.24-22.92a7.51,7.51,0,0,1,5.71-2,7.09,7.09,0,0,1,5.33,2.12,8.44,8.44,0,0,1,2.27,5.54H578.51A10.63,10.63,0,0,1,581.09,90.58Z"/><path d="M610.84,109.43a9,9,0,0,0,.87,4.18,7.23,7.23,0,0,0,2.26,2.64,8.47,8.47,0,0,0,3.1,1.36,15.47,15.47,0,0,0,3.45.39H623c.74,0,1.37,0,1.88-.07s1.07,0,1.53-.07v-7a6.33,6.33,0,0,1-1,.07h-1.81a4.06,4.06,0,0,1-2.58-.77,3.36,3.36,0,0,1-1-2.78v-19h6.14V82.19H620.1V71h-9.26V82.19h-5v6.27h5Z"/><path d="M660.69,89.18c0-1,0-2.13-.07-3.31s-.09-2.31-.14-3.38-.16-2.42-.21-3.63h.14c.23,1.17.46,2.3.7,3.42.23,1,.46,2,.69,3.06s.49,2.07.77,3l8.36,29.4h9.68l8.57-29.4c.23-.93.48-1.93.73-3s.5-2.09.74-3.06c.23-1.12.46-2.25.69-3.42h.14q-.13,1.81-.21,3.63c-.09,1.07-.15,2.19-.17,3.38s0,2.28,0,3.31v28.56h9.41V67.93H686.05l-7,25c-.46,1.58-.87,3.16-1.22,4.73s-.66,3-.94,4.32c-.32,1.54-.63,3-.9,4.39h-.14c-.28-1.39-.59-2.85-.91-4.39-.28-1.3-.62-2.74-1-4.32s-.8-3.15-1.22-4.73l-7-25H651.42v49.81h9.27Z"/><path d="M739.52,93.81A20.21,20.21,0,0,0,736.14,87a15.23,15.23,0,0,0-5.51-4.43A17.44,17.44,0,0,0,723,81a17.1,17.1,0,0,0-12.71,5.44,17.71,17.71,0,0,0-3.63,6,21,21,0,0,0-1.29,7.41,22.49,22.49,0,0,0,1.22,7.46,17.1,17.1,0,0,0,3.59,6,16.79,16.79,0,0,0,5.82,4,20,20,0,0,0,7.91,1.46,19.26,19.26,0,0,0,6.2-.94A16.13,16.13,0,0,0,735,115.3a13.74,13.74,0,0,0,3.34-3.73,14.11,14.11,0,0,0,1.78-4.49h-9.34a6.69,6.69,0,0,1-2.43,3.2,7.52,7.52,0,0,1-4.46,1.19,8.31,8.31,0,0,1-6.31-2.37,11.35,11.35,0,0,1-2.82-6.55h25.92A31.34,31.34,0,0,0,739.52,93.81ZM714.89,96a10.59,10.59,0,0,1,2.58-5.6,7.5,7.5,0,0,1,5.71-2.06,7.11,7.11,0,0,1,5.33,2.12A8.43,8.43,0,0,1,730.77,96Z"/><path d="M770.73,86.32h-.21a12.64,12.64,0,0,0-3.9-3.76,11.51,11.51,0,0,0-6.2-1.54,13.48,13.48,0,0,0-6.13,1.4,15,15,0,0,0-4.85,3.86,17.76,17.76,0,0,0-3.17,6,25.14,25.14,0,0,0-1.11,7.66,26,26,0,0,0,1.11,7.84,18.08,18.08,0,0,0,3.1,6,13.73,13.73,0,0,0,4.78,3.76,14.11,14.11,0,0,0,6.13,1.32,11.86,11.86,0,0,0,10.66-5.71h.14v4.67h9.12V67.93h-9.47Zm-2,21.63a7.49,7.49,0,0,1-6.41,2.89,6.43,6.43,0,0,1-5.65-2.85c-1.3-1.91-2-4.6-2-8.09a14.93,14.93,0,0,1,2-8.08,6.51,6.51,0,0,1,5.89-3.13,8.19,8.19,0,0,1,3.86.83,6.9,6.9,0,0,1,2.55,2.34,10.58,10.58,0,0,1,1.42,3.59,21.52,21.52,0,0,1,.46,4.66A12.82,12.82,0,0,1,768.78,108Z"/><rect x="786.36" y="67.93" width="9.47" height="8.5"/><rect x="786.36" y="82" width="9.47" height="35.74"/><path d="M832.59,112.44V94.26q0-6.27-3.52-9.72t-11.53-3.45a21,21,0,0,0-6.76,1,14.32,14.32,0,0,0-4.73,2.58,10.75,10.75,0,0,0-2.86,3.72,11.4,11.4,0,0,0-1,4.5h8.43a4.9,4.9,0,0,1,1.88-3.8,8.49,8.49,0,0,1,5-1.22A7.38,7.38,0,0,1,822,89a3.72,3.72,0,0,1,1.49,3.1,2.69,2.69,0,0,1-2.09,2.72,41,41,0,0,1-6.54,1.32,42.4,42.4,0,0,0-5.61,1.15,15.7,15.7,0,0,0-4.57,2.06,9.5,9.5,0,0,0-3.06,3.34,10.17,10.17,0,0,0-1.12,5q0,5.35,3.49,8.15a13.9,13.9,0,0,0,9,2.79,17.75,17.75,0,0,0,4-.39,12.21,12.21,0,0,0,2.89-1,8.15,8.15,0,0,0,2.09-1.5,12.5,12.5,0,0,0,1.56-1.91h.14a21.23,21.23,0,0,0,.42,2.3,4.8,4.8,0,0,0,.7,1.67h9.12v-.35Q832.6,116.49,832.59,112.44Zm-8.92-7.31a6.05,6.05,0,0,1-.55,2.54,6.33,6.33,0,0,1-1.64,2.16,8.43,8.43,0,0,1-2.65,1.53,10,10,0,0,1-3.59.6,7.26,7.26,0,0,1-4-1,4.66,4.66,0,0,1,.28-7.14,18.84,18.84,0,0,1,5.57-2c1.21-.27,2.41-.56,3.59-.87a10.82,10.82,0,0,0,3-1.21Z"/></svg>