<svg id="Lager_1" data-name="Lager 1" xmlns="http://www.w3.org/2000/svg" viewBox="0 0 850 250"><defs><style>.cls-1{fill:#fff;}</style></defs><path class="cls-1" d="M431.35,85.81q0-1.32,0-2.82c0-1-.06-1.94-.1-2.82l-.14-3.07h.14c.37.79.76,1.6,1.18,2.44.37.69.75,1.45,1.15,2.26a19.4,19.4,0,0,0,1.22,2.2l17,27.52h9.75V61.7h-10V87.83q0,1.32,0,2.82c0,1,.06,1.94.11,2.82s.09,2,.14,3h-.14c-.33-.79-.7-1.6-1.12-2.44s-.76-1.45-1.18-2.27-.81-1.56-1.19-2.26L431.63,61.7H421.39v49.82h10Z"/><path class="cls-1" d="M485.21,112.56a19.26,19.26,0,0,0,6.2-.94,16.36,16.36,0,0,0,4.84-2.54,13.74,13.74,0,0,0,3.34-3.73,14.2,14.2,0,0,0,1.78-4.49H492a6.79,6.79,0,0,1-2.43,3.2,7.6,7.6,0,0,1-4.46,1.19,8.31,8.31,0,0,1-6.31-2.37A11.38,11.38,0,0,1,476,96.33h25.92a31.42,31.42,0,0,0-1.15-8.75,20.3,20.3,0,0,0-3.38-6.79,15.26,15.26,0,0,0-5.5-4.42,18.69,18.69,0,0,0-14.74-.11,17.2,17.2,0,0,0-5.57,4,17.8,17.8,0,0,0-3.63,6,21,21,0,0,0-1.28,7.42,22.53,22.53,0,0,0,1.21,7.46,16.5,16.5,0,0,0,9.41,10A20.18,20.18,0,0,0,485.21,112.56Zm-6.48-28.39a7.5,7.5,0,0,1,5.71-2,7.07,7.07,0,0,1,5.33,2.12A8.36,8.36,0,0,1,492,89.78H476.15A10.63,10.63,0,0,1,478.73,84.17Z"/><path class="cls-1" d="M540.45,92.36c-.46,1.58-.83,3.06-1.11,4.46-.19.79-.35,1.53-.49,2.22h-.14c-.18-.69-.37-1.43-.56-2.22s-.37-1.37-.55-2.16L537,92.29l-4.67-16.51h-8.08l-4.46,16.51a23.44,23.44,0,0,0-.59,2.3q-.24,1.18-.45,2.16c-.19.79-.35,1.55-.49,2.29h-.14c-.14-.69-.3-1.43-.49-2.22s-.31-1.37-.52-2.16-.41-1.56-.59-2.3l-4.32-16.58h-9.41l10.45,35.74h8.57L526.73,94l.56-2.16c.18-.74.37-1.42.55-2s.37-1.37.56-2h.14c.14.65.3,1.32.49,2s.3,1.28.49,2,.39,1.46.62,2.16l4.74,17.56h8.64l10.66-35.74H545Z"/><rect class="cls-1" x="570.06" y="61.7" width="10.1" height="49.81"/><path class="cls-1" d="M616.11,78.6a11.3,11.3,0,0,0-3.87-2.79,13.61,13.61,0,0,0-11.28.45,12.55,12.55,0,0,0-4.36,4.39h-.21V75.78h-9.26v35.74h9.47V91.24a8.51,8.51,0,0,1,2.06-5.95A6.71,6.71,0,0,1,603.85,83a5.84,5.84,0,0,1,4.6,1.81,6.89,6.89,0,0,1,1.6,4.74v22h9.47V88.18a15.44,15.44,0,0,0-.9-5.37A13,13,0,0,0,616.11,78.6Z"/><path class="cls-1" d="M640.36,104.55a4.06,4.06,0,0,1-2.58-.77,3.36,3.36,0,0,1-1-2.78v-19h6.13V75.78H636.8V64.63h-9.26V75.78h-4.95v6.27h4.95v21a9,9,0,0,0,.87,4.18,7.23,7.23,0,0,0,2.26,2.64,8.56,8.56,0,0,0,3.1,1.36,15.47,15.47,0,0,0,3.45.39h2.51c.74,0,1.37,0,1.88-.07s1.07,0,1.53-.07v-7a6.33,6.33,0,0,1-1,.07Z"/><path class="cls-1" d="M803.51,104.55H801.7a4.06,4.06,0,0,1-2.58-.77,3.36,3.36,0,0,1-1-2.78v-19h6.13V75.78h-6.13V64.63h-9.27V75.78h-4.94v6.27h4.94v21a9,9,0,0,0,.87,4.18,7.25,7.25,0,0,0,2.27,2.64,8.56,8.56,0,0,0,3.1,1.36,15.34,15.34,0,0,0,3.45.39h2.5c.75,0,1.37,0,1.88-.07s1.07,0,1.54-.07v-7A6.46,6.46,0,0,1,803.51,104.55Z"/><path class="cls-1" d="M679.82,87.58a20.12,20.12,0,0,0-3.38-6.79,15.17,15.17,0,0,0-5.5-4.42,17.63,17.63,0,0,0-20.31,3.86,17.78,17.78,0,0,0-3.62,6,21,21,0,0,0-1.29,7.42,22.28,22.28,0,0,0,1.22,7.46,16.53,16.53,0,0,0,9.4,10,20.21,20.21,0,0,0,7.91,1.46,19.21,19.21,0,0,0,6.2-.94,16.23,16.23,0,0,0,4.84-2.54,13.77,13.77,0,0,0,3.35-3.73,13.94,13.94,0,0,0,1.77-4.49h-9.33a6.81,6.81,0,0,1-2.44,3.2,7.57,7.57,0,0,1-4.46,1.19,8.29,8.29,0,0,1-6.3-2.37,11.45,11.45,0,0,1-2.83-6.55H681A31.05,31.05,0,0,0,679.82,87.58Zm-24.63,2.2a10.63,10.63,0,0,1,2.58-5.61,7.51,7.51,0,0,1,5.71-2,7.06,7.06,0,0,1,5.33,2.12,8.42,8.42,0,0,1,2.27,5.54Z"/><path class="cls-1" d="M698.32,76.89a13.51,13.51,0,0,0-3.63,4.6h-.2V75.78h-9.13v35.74h9.47V94.1q0-5.64,3-8.15a9.83,9.83,0,0,1,7.66-2h.21V75.64a6.71,6.71,0,0,0-2.23-.28A8.27,8.27,0,0,0,698.32,76.89Z"/><path class="cls-1" d="M738.79,78.6a11.26,11.26,0,0,0-3.86-2.79,13.63,13.63,0,0,0-11.29.45,12.52,12.52,0,0,0-4.35,4.39h-.21V75.78h-9.27v35.74h9.48V91.24a8.51,8.51,0,0,1,2.05-5.95A6.71,6.71,0,0,1,726.53,83a5.84,5.84,0,0,1,4.6,1.81,6.89,6.89,0,0,1,1.6,4.74v22h9.48V88.18a15.21,15.21,0,0,0-.91-5.37A12.84,12.84,0,0,0,738.79,78.6Z"/><path class="cls-1" d="M780.42,87.58A20.12,20.12,0,0,0,777,80.79a15.26,15.26,0,0,0-5.5-4.42,18.69,18.69,0,0,0-14.74-.11,17.2,17.2,0,0,0-5.57,4,17.78,17.78,0,0,0-3.62,6,21,21,0,0,0-1.29,7.42,22.28,22.28,0,0,0,1.22,7.46,16.45,16.45,0,0,0,9.4,10,20.21,20.21,0,0,0,7.91,1.46,19.26,19.26,0,0,0,6.2-.94,16.23,16.23,0,0,0,4.84-2.54,13.77,13.77,0,0,0,3.35-3.73,14.17,14.17,0,0,0,1.77-4.49h-9.33a6.87,6.87,0,0,1-2.44,3.2,7.57,7.57,0,0,1-4.46,1.19,8.32,8.32,0,0,1-6.31-2.37,11.38,11.38,0,0,1-2.82-6.55h25.92A31.05,31.05,0,0,0,780.42,87.58Zm-24.63,2.2a10.63,10.63,0,0,1,2.58-5.61,7.5,7.5,0,0,1,5.71-2,7.06,7.06,0,0,1,5.33,2.12,8.42,8.42,0,0,1,2.27,5.54Z"/><path class="cls-1" d="M449,149.78c-.46,1.58-.87,3.16-1.22,4.74s-.66,3-.94,4.32c-.32,1.53-.63,3-.9,4.38h-.14c-.28-1.39-.59-2.85-.91-4.38-.28-1.3-.62-2.74-1-4.32s-.8-3.16-1.22-4.74l-7-25H421.39v49.81h9.27V146c0-1,0-2.13-.07-3.31s-.1-2.31-.14-3.38-.16-2.42-.21-3.62h.14c.23,1.16.46,2.3.7,3.41s.46,2,.69,3.07.49,2.06.77,3l8.36,29.4h9.68l8.57-29.4c.23-.93.48-1.93.73-3s.5-2.09.74-3.07.46-2.25.69-3.41h.14c-.09,1.2-.16,2.41-.21,3.62s-.15,2.19-.17,3.38,0,2.29,0,3.31v28.56h9.41V124.77H456Z"/><path class="cls-1" d="M509.49,150.65a20.21,20.21,0,0,0-3.38-6.79,15.23,15.23,0,0,0-5.51-4.43,17.44,17.44,0,0,0-7.59-1.56,17,17,0,0,0-12.71,5.43,17.71,17.71,0,0,0-3.63,6,21,21,0,0,0-1.29,7.42,22.47,22.47,0,0,0,1.22,7.45,17.1,17.1,0,0,0,3.59,6,16.79,16.79,0,0,0,5.82,4,20,20,0,0,0,7.91,1.47,19.53,19.53,0,0,0,6.2-.94,16.37,16.37,0,0,0,4.84-2.55,13.85,13.85,0,0,0,3.34-3.72,14.25,14.25,0,0,0,1.78-4.5h-9.34a6.73,6.73,0,0,1-2.44,3.21,7.54,7.54,0,0,1-4.45,1.18,8.31,8.31,0,0,1-6.31-2.37,11.35,11.35,0,0,1-2.82-6.55h25.92A31.34,31.34,0,0,0,509.49,150.65Zm-24.63,2.19a10.63,10.63,0,0,1,2.58-5.6,7.5,7.5,0,0,1,5.71-2.06,7.08,7.08,0,0,1,5.33,2.13,8.39,8.39,0,0,1,2.26,5.53Z"/><path class="cls-1" d="M540.7,143.16h-.21a12.76,12.76,0,0,0-3.9-3.76,11.51,11.51,0,0,0-6.2-1.53,13.47,13.47,0,0,0-6.13,1.39,14.94,14.94,0,0,0-4.85,3.87,17.71,17.71,0,0,0-3.17,6,25.2,25.2,0,0,0-1.11,7.67,25.89,25.89,0,0,0,1.11,7.83,18.08,18.08,0,0,0,3.1,6,13.61,13.61,0,0,0,4.78,3.76,14.11,14.11,0,0,0,6.13,1.33,11.9,11.9,0,0,0,10.66-5.72h.14v4.67h9.12V124.77H540.7Zm-2,21.63a7.49,7.49,0,0,1-6.41,2.89,6.42,6.42,0,0,1-5.65-2.85q-2-2.87-2-8.08a14.94,14.94,0,0,1,2-8.09,6.51,6.51,0,0,1,5.89-3.13,8.07,8.07,0,0,1,3.86.84A6.79,6.79,0,0,1,539,148.7a10.58,10.58,0,0,1,1.42,3.59,22.16,22.16,0,0,1,.46,4.66A12.8,12.8,0,0,1,538.75,164.79Z"/><rect class="cls-1" x="556.33" y="138.84" width="9.47" height="35.74"/><rect class="cls-1" x="556.33" y="124.77" width="9.47" height="8.5"/><path class="cls-1" d="M602.56,169.29V151.1q0-6.27-3.52-9.72t-11.53-3.44a21,21,0,0,0-6.76,1,14.32,14.32,0,0,0-4.73,2.58,10.69,10.69,0,0,0-2.86,3.73,11.31,11.31,0,0,0-1,4.49h8.43a4.91,4.91,0,0,1,1.88-3.8,8.49,8.49,0,0,1,5-1.22,7.38,7.38,0,0,1,4.5,1.15,3.72,3.72,0,0,1,1.49,3.1,2.68,2.68,0,0,1-2.09,2.72A38.83,38.83,0,0,1,584.8,153a44.07,44.07,0,0,0-5.61,1.15,15.7,15.7,0,0,0-4.57,2.06,9.59,9.59,0,0,0-3.06,3.34,10.06,10.06,0,0,0-1.12,4.95c0,3.58,1.16,6.29,3.49,8.15a13.9,13.9,0,0,0,9,2.79,17.75,17.75,0,0,0,4-.39,12.21,12.21,0,0,0,2.89-1,8.12,8.12,0,0,0,2.09-1.49,12.12,12.12,0,0,0,1.56-1.92h.14a20.8,20.8,0,0,0,.42,2.3,4.8,4.8,0,0,0,.7,1.67h9.12v-.35Q602.57,173.33,602.56,169.29ZM593.64,162a6.05,6.05,0,0,1-.55,2.54,6.33,6.33,0,0,1-1.64,2.16,8.64,8.64,0,0,1-2.65,1.54,10.2,10.2,0,0,1-3.59.59,7.26,7.26,0,0,1-4-1,4.66,4.66,0,0,1,.28-7.14,18.88,18.88,0,0,1,5.57-2c1.21-.28,2.41-.57,3.59-.87a11.14,11.14,0,0,0,3-1.22Z"/><rect class="cls-1" x="166" y="151.69" width="112.55" height="22.82"/><polygon class="cls-1" points="333.21 84.4 399.37 84.4 399.37 61.57 286.83 61.57 286.83 84.4 289.82 84.4 286.83 94.88 367.13 117.83 286.83 140.79 289.94 151.69 286.83 151.69 286.83 174.51 399.37 174.51 399.37 151.69 331.75 151.69 401.31 131.8 397.32 117.83 401.31 103.87 333.21 84.4"/><polygon class="cls-1" points="45.47 84.4 133.93 84.4 49.92 142.43 56.32 151.69 45.47 151.69 45.47 174.51 158.02 174.51 158.02 151.69 76.68 151.69 155.5 97.24 146.63 84.4 158.02 84.4 158.02 61.57 45.47 61.57 45.47 84.4"/></svg>