<svg id="Lager_1" data-name="Lager 1" xmlns="http://www.w3.org/2000/svg" viewBox="0 0 850 250"><path d="M436.14,85.81q0-1.32,0-2.82c0-1-.06-1.94-.11-2.82l-.14-3.07H436c.37.79.77,1.6,1.19,2.44.37.69.75,1.45,1.15,2.26a21.11,21.11,0,0,0,1.21,2.2l17,27.52h9.76V61.7h-10V87.83c0,.88,0,1.82,0,2.82s.06,1.94.1,2.82.1,2,.14,3h-.14c-.32-.79-.69-1.6-1.11-2.44s-.77-1.45-1.19-2.27-.81-1.56-1.18-2.26L436.42,61.7H426.18v49.82h10Z"/><path d="M490,112.56a19.17,19.17,0,0,0,6.2-.94,16.41,16.41,0,0,0,4.85-2.54,13.74,13.74,0,0,0,3.34-3.73,14.2,14.2,0,0,0,1.78-4.49h-9.34a6.75,6.75,0,0,1-2.44,3.2,7.55,7.55,0,0,1-4.46,1.19,8.3,8.3,0,0,1-6.3-2.37,11.38,11.38,0,0,1-2.82-6.55h25.91a31.05,31.05,0,0,0-1.15-8.75,19.93,19.93,0,0,0-3.38-6.79,15.17,15.17,0,0,0-5.5-4.42,17.65,17.65,0,0,0-20.31,3.86,18,18,0,0,0-3.62,6,21,21,0,0,0-1.29,7.42,22.53,22.53,0,0,0,1.22,7.46,16.5,16.5,0,0,0,9.41,10A20.16,20.16,0,0,0,490,112.56Zm-6.48-28.39a7.52,7.52,0,0,1,5.72-2,7.07,7.07,0,0,1,5.33,2.12,8.41,8.41,0,0,1,2.26,5.54H480.94A10.54,10.54,0,0,1,483.51,84.17Z"/><path d="M545.24,92.36c-.47,1.58-.84,3.06-1.12,4.46q-.27,1.19-.48,2.22h-.14c-.19-.69-.37-1.43-.56-2.22s-.37-1.37-.56-2.16l-.55-2.37-4.67-16.51h-8.08l-4.46,16.51a20.92,20.92,0,0,0-.59,2.3l-.46,2.16c-.18.79-.35,1.55-.49,2.29H523c-.14-.69-.31-1.43-.49-2.22s-.32-1.37-.52-2.16-.41-1.56-.6-2.3L517,75.78h-9.4l10.45,35.74h8.57L531.51,94c.19-.7.38-1.42.56-2.16s.37-1.42.56-2,.37-1.37.56-2h.14c.14.65.3,1.32.48,2s.31,1.28.49,2,.4,1.46.63,2.16l4.74,17.56h8.63L559,75.78h-9.19Z"/><rect x="574.85" y="61.7" width="10.1" height="49.81"/><path d="M620.9,78.6A11.3,11.3,0,0,0,617,75.81a13.63,13.63,0,0,0-11.29.45,12.61,12.61,0,0,0-4.35,4.39h-.21V75.78h-9.26v35.74h9.47V91.24a8.46,8.46,0,0,1,2.06-5.95A6.7,6.7,0,0,1,608.64,83a5.83,5.83,0,0,1,4.59,1.81,6.89,6.89,0,0,1,1.61,4.74v22h9.47V88.18a15.44,15.44,0,0,0-.9-5.37A13.2,13.2,0,0,0,620.9,78.6Z"/><path d="M645.14,104.55a4.06,4.06,0,0,1-2.58-.77,3.36,3.36,0,0,1-1-2.78v-19h6.13V75.78h-6.13V64.63h-9.27V75.78h-4.94v6.27h4.94v21a9,9,0,0,0,.87,4.18,7.25,7.25,0,0,0,2.27,2.64,8.56,8.56,0,0,0,3.1,1.36,15.4,15.4,0,0,0,3.45.39h2.5c.75,0,1.37,0,1.89-.07s1.06,0,1.53-.07v-7a6.46,6.46,0,0,1-1,.07Z"/><path d="M808.3,104.55h-1.81a4.06,4.06,0,0,1-2.58-.77,3.36,3.36,0,0,1-1-2.78v-19h6.13V75.78h-6.13V64.63h-9.26V75.78h-4.95v6.27h4.95v21a9,9,0,0,0,.87,4.18,7.23,7.23,0,0,0,2.26,2.64,8.56,8.56,0,0,0,3.1,1.36,15.47,15.47,0,0,0,3.45.39h2.51c.74,0,1.37,0,1.88-.07s1.07,0,1.53-.07v-7A6.33,6.33,0,0,1,808.3,104.55Z"/><path d="M684.61,87.58a20.3,20.3,0,0,0-3.38-6.79,15.21,15.21,0,0,0-5.51-4.42,17.62,17.62,0,0,0-20.3,3.86,17.8,17.8,0,0,0-3.63,6,21,21,0,0,0-1.28,7.42,22.53,22.53,0,0,0,1.21,7.46,16.5,16.5,0,0,0,9.41,10,20.18,20.18,0,0,0,7.91,1.46,19.26,19.26,0,0,0,6.2-.94,16.36,16.36,0,0,0,4.84-2.54,13.74,13.74,0,0,0,3.34-3.73,14.2,14.2,0,0,0,1.78-4.49h-9.34a6.79,6.79,0,0,1-2.43,3.2,7.6,7.6,0,0,1-4.46,1.19,8.31,8.31,0,0,1-6.31-2.37,11.38,11.38,0,0,1-2.82-6.55h25.92A31.42,31.42,0,0,0,684.61,87.58ZM660,89.78a10.63,10.63,0,0,1,2.58-5.61,7.5,7.5,0,0,1,5.71-2,7.07,7.07,0,0,1,5.33,2.12,8.41,8.41,0,0,1,2.26,5.54Z"/><path d="M703.1,76.89a13.62,13.62,0,0,0-3.62,4.6h-.21V75.78h-9.12v35.74h9.47V94.1q0-5.64,3-8.15a9.82,9.82,0,0,1,7.66-2h.21V75.64a6.75,6.75,0,0,0-2.23-.28A8.32,8.32,0,0,0,703.1,76.89Z"/><path d="M743.58,78.6a11.3,11.3,0,0,0-3.87-2.79,13.61,13.61,0,0,0-11.28.45,12.55,12.55,0,0,0-4.36,4.39h-.21V75.78H714.6v35.74h9.47V91.24a8.51,8.51,0,0,1,2.06-5.95A6.71,6.71,0,0,1,731.32,83a5.86,5.86,0,0,1,4.6,1.81,6.94,6.94,0,0,1,1.6,4.74v22H747V88.18a15.44,15.44,0,0,0-.9-5.37A13,13,0,0,0,743.58,78.6Z"/><path d="M785.21,87.58a20.3,20.3,0,0,0-3.38-6.79,15.21,15.21,0,0,0-5.51-4.42A17.62,17.62,0,0,0,756,80.23a17.8,17.8,0,0,0-3.63,6,21,21,0,0,0-1.29,7.42,22.53,22.53,0,0,0,1.22,7.46,16.5,16.5,0,0,0,9.41,10,20.18,20.18,0,0,0,7.91,1.46,19.26,19.26,0,0,0,6.2-.94,16.36,16.36,0,0,0,4.84-2.54,13.74,13.74,0,0,0,3.34-3.73,14.2,14.2,0,0,0,1.78-4.49h-9.34a6.75,6.75,0,0,1-2.44,3.2,7.54,7.54,0,0,1-4.45,1.19,8.31,8.31,0,0,1-6.31-2.37,11.38,11.38,0,0,1-2.82-6.55h25.92A31.42,31.42,0,0,0,785.21,87.58Zm-24.63,2.2a10.63,10.63,0,0,1,2.58-5.61,7.5,7.5,0,0,1,5.71-2,7.07,7.07,0,0,1,5.33,2.12,8.41,8.41,0,0,1,2.26,5.54Z"/><path d="M453.77,149.78c-.47,1.58-.87,3.16-1.22,4.74s-.66,3-.94,4.32c-.33,1.53-.63,3-.91,4.38h-.14q-.42-2.08-.9-4.38c-.28-1.3-.62-2.74-1-4.32s-.8-3.16-1.22-4.74l-7-25H426.18v49.81h9.26V146c0-1,0-2.13-.07-3.31s-.09-2.31-.13-3.38-.17-2.42-.21-3.62h.14c.23,1.16.46,2.3.69,3.41s.47,2,.7,3.07.49,2.06.77,3l8.36,29.4h9.68l8.57-29.4c.23-.93.47-1.93.73-3s.5-2.09.73-3.07.47-2.25.7-3.41h.14c-.1,1.2-.17,2.41-.21,3.62s-.15,2.19-.18,3.38,0,2.29,0,3.31v28.56h9.4V124.77H460.8Z"/><path d="M514.27,150.65a19.84,19.84,0,0,0-3.38-6.79,15.2,15.2,0,0,0-5.5-4.43,17.44,17.44,0,0,0-7.59-1.56,17.09,17.09,0,0,0-12.72,5.43,17.85,17.85,0,0,0-3.62,6,21,21,0,0,0-1.29,7.42,22.47,22.47,0,0,0,1.22,7.45,16.46,16.46,0,0,0,9.4,10,20,20,0,0,0,7.91,1.47,19.49,19.49,0,0,0,6.2-.94,16.25,16.25,0,0,0,4.84-2.55,13.88,13.88,0,0,0,3.35-3.72,14.25,14.25,0,0,0,1.78-4.5h-9.34a6.73,6.73,0,0,1-2.44,3.21,7.55,7.55,0,0,1-4.46,1.18,8.3,8.3,0,0,1-6.3-2.37,11.35,11.35,0,0,1-2.82-6.55h25.91A31,31,0,0,0,514.27,150.65Zm-24.62,2.19a10.55,10.55,0,0,1,2.57-5.6,7.52,7.52,0,0,1,5.72-2.06,7.1,7.1,0,0,1,5.33,2.13,8.44,8.44,0,0,1,2.26,5.53Z"/><path d="M545.48,143.16h-.21a12.54,12.54,0,0,0-3.9-3.76,11.46,11.46,0,0,0-6.2-1.53,13.5,13.5,0,0,0-6.13,1.39,14.9,14.9,0,0,0-4.84,3.87,17.54,17.54,0,0,0-3.17,6,25.2,25.2,0,0,0-1.11,7.67,25.89,25.89,0,0,0,1.11,7.83,17.89,17.89,0,0,0,3.1,6,13.49,13.49,0,0,0,4.77,3.76,14.15,14.15,0,0,0,6.13,1.33,11.9,11.9,0,0,0,10.66-5.72h.14v4.67H555V124.77h-9.48Zm-2,21.63a7.48,7.48,0,0,1-6.41,2.89,6.41,6.41,0,0,1-5.64-2.85q-2-2.87-2-8.08a14.94,14.94,0,0,1,2-8.09,6.53,6.53,0,0,1,5.89-3.13,8.14,8.14,0,0,1,3.87.84,6.76,6.76,0,0,1,2.54,2.33,10.59,10.59,0,0,1,1.43,3.59,22.2,22.2,0,0,1,.45,4.66A12.8,12.8,0,0,1,543.53,164.79Z"/><rect x="561.11" y="138.84" width="9.47" height="35.74"/><rect x="561.11" y="124.77" width="9.47" height="8.5"/><path d="M607.35,169.29V151.1q0-6.27-3.52-9.72t-11.53-3.44a21,21,0,0,0-6.76,1,14.48,14.48,0,0,0-4.74,2.58,10.78,10.78,0,0,0-2.85,3.73,11.49,11.49,0,0,0-1.05,4.49h8.43a4.94,4.94,0,0,1,1.88-3.8,8.54,8.54,0,0,1,5-1.22,7.35,7.35,0,0,1,4.49,1.15,3.71,3.71,0,0,1,1.5,3.1,2.69,2.69,0,0,1-2.09,2.72,39,39,0,0,1-6.55,1.32,44.07,44.07,0,0,0-5.61,1.15,15.63,15.63,0,0,0-4.56,2.06,9.71,9.71,0,0,0-3.07,3.34,10.17,10.17,0,0,0-1.11,4.95c0,3.58,1.16,6.29,3.48,8.15a14,14,0,0,0,9,2.79,17.65,17.65,0,0,0,4-.39,11.9,11.9,0,0,0,2.89-1,8.12,8.12,0,0,0,2.09-1.49,12.17,12.17,0,0,0,1.57-1.92h.14a17,17,0,0,0,.42,2.3,4.81,4.81,0,0,0,.69,1.67h9.13v-.35C607.76,173.63,607.35,172,607.35,169.29ZM598.43,162a6.06,6.06,0,0,1-.56,2.54,6.21,6.21,0,0,1-1.64,2.16,8.71,8.71,0,0,1-2.64,1.54,10.24,10.24,0,0,1-3.59.59,7.26,7.26,0,0,1-4-1,4.66,4.66,0,0,1,.28-7.14,18.66,18.66,0,0,1,5.57-2c1.21-.28,2.4-.57,3.59-.87a11.4,11.4,0,0,0,3-1.22Z"/><rect x="170.79" y="151.69" width="112.55" height="22.82"/><polygon points="337.99 84.4 404.16 84.4 404.16 61.57 291.61 61.57 291.61 84.4 294.61 84.4 291.61 94.88 371.92 117.83 291.61 140.79 294.73 151.69 291.61 151.69 291.61 174.51 404.16 174.51 404.16 151.69 336.54 151.69 406.1 131.8 402.11 117.83 406.1 103.87 337.99 84.4"/><polygon points="50.25 84.4 138.71 84.4 54.71 142.43 61.11 151.69 50.25 151.69 50.25 174.51 162.8 174.51 162.8 151.69 81.47 151.69 160.28 97.24 151.41 84.4 162.8 84.4 162.8 61.57 50.25 61.57 50.25 84.4"/></svg>